<?xml version="1.0" standalone="no"?>
<svg style="width: 487.5px; height: 487.5px; justify-content: center; align-self: center; transform: scale(1);" viewBox="-350 -150 1500 1500" xmlns="http://www.w3.org/2000/svg"><g transform="rotate(0 441.54943084716797 628.8803253173828)"><g transform="translate(0 459)"><path d="M569.933 257.977C561.249 254.881 552.879 251.305 545.253 246.045C523.27 229.682 508.936 205.057 495.392 181.726C476.314 147.793 462.723 111.635 453.328 73.915C449.291 57.709 447.92 38.919 438.748 24.551C417.956 -5.53401 356.987 -1.63601 324.612 3.64499C302.932 7.48099 298.451 31.743 293.527 49.696C289.427 64.613 286.743 79.699 284.49 94.987C279.13 98.511 273.079 101.373 267.311 103.866C204.452 123.141 193.404 158.875 169.395 214.073C128.844 294.302 18.8088 325.715 2.18783 420.664C-8.52117 483.349 21.9318 542.322 53.3288 594.434C82.5688 651.355 123.39 678.675 188.399 665.227C249.374 651.549 307.974 628.668 367.876 610.987C396.889 603.854 425.856 585.3 456.375 591.769C519.26 605.892 583.871 612.532 648.317 610.699C738.801 614.358 738.787 527.513 729.5 460.26C722.995 355.599 670.205 288.395 569.933 257.977L569.933 257.977Z" transform="translate(90.00037 -39.99969)" fill="#FFFFFF" stroke="none"></path><path d="M794.691 379.885C794.177 383.043 793.572 385.897 792.138 388.798C790.279 392.564 787.675 396.045 784.568 398.93C794.01 419.989 797.814 443.248 798.848 466.184C799.592 485.591 798.788 505.366 795.001 524.457C792.066 539.262 786.359 553.446 776.101 564.713C767.629 574.018 756.623 580.535 744.822 584.684C724.011 592 701.218 592 679.343 589.928C679.829 592.002 680.232 594.075 680.648 596.036C681.984 602.329 683.405 659.119 686.264 672.05C687.473 677.52 688.066 684.97 691.321 689.57C694.417 693.946 696.183 698.84 695.089 704.248C694.27 708.299 691.75 713.34 688.789 716.284C687.399 717.664 687.103 718.253 686.625 718.534C685.746 719.052 684.252 718.525 674.199 719.962C554.944 737 258.844 747.2 101.32 713.336C94.9797 720.916 81.2917 721.231 75.7457 711.882C72.7921 706.904 72.5839 699.582 72.4062 693.331C72.3667 691.944 72.3288 690.61 72.2627 689.366C71.7947 680.547 68.9227 608.328 68.0587 590.024C67.924 587.171 67.7834 584.317 67.6428 581.464C66.8942 566.267 66.1451 551.062 66.2807 535.845C66.3607 526.827 66.7427 517.803 67.6357 508.826C67.9957 505.221 68.0347 499.682 69.9067 495.973C64.8607 481.336 58.5817 467.233 51.1207 453.66C38.9077 450.503 27.0537 446.045 15.8167 440.297C10.6977 437.68 5.36067 435.47 3.10267 429.865C1.09767 424.885 -0.205331 419.82 0.0266694 414.368C0.612669 400.589 3.06067 386.643 5.01767 373.002C7.04267 358.885 9.39967 344.816 12.0987 330.812C20.1557 289.016 29.7697 246.559 46.5427 207.297C62.9817 168.825 87.8947 135.92 123.257 113.04C163.377 87.0808 211.808 72.6538 258.844 66.3328C259.776 66.2075 260.704 66.062 261.628 65.9172C265.973 65.236 270.229 64.5688 274.488 66.0738C274.792 66.1813 275.101 66.2979 275.412 66.4155C276.666 66.8889 277.966 67.3799 279.234 67.3678C281.667 67.3448 284.357 66.5468 286.823 66.2588C293.509 65.4778 300.236 65.1348 306.949 64.6658C312.385 64.2878 318.279 64.2498 323.418 62.2048C334.395 57.8368 340.188 20.1098 341.96 14.0308C343.225 9.69184 344.547 3.30184 348.571 0.802843C350.705 -0.521157 354.159 -0.207157 355.842 1.74184C358.971 5.36231 357.852 11.564 356.911 16.7842C356.659 18.1808 356.419 19.507 356.278 20.6948C355.451 27.6258 352.63 78.5528 315.437 81.0528C281.291 83.348 281.572 86.2632 281.848 89.1198C281.872 89.3748 281.897 89.6293 281.897 89.8828C286.357 97.8228 293.101 108.328 298.802 115.135C306.403 124.208 314.804 132.739 323.85 140.377C353.611 165.509 392.588 180.01 431.606 179.382C452.066 179.053 471.029 174.057 484.741 158.006C497.546 143.016 504.724 116.424 510.138 97.7128C497.288 81.6958 491.704 60.1978 496.569 44.2078C498.023 39.4285 500.777 35.1878 506.05 38.3918C510.489 41.0888 510.132 53.8958 511.271 58.4538C513.648 67.9698 518.892 73.1968 525.49 80.6798C530.16 80.3038 534.529 82.1578 537.8 85.5528C567.749 92.8868 596.421 102.286 620.5 122.238C639.544 138.018 654.709 157.973 668.622 178.263C684.893 201.991 700.417 226.258 716.207 250.309C734 277.411 751.765 304.53 769.652 331.571C774.032 338.193 778.419 344.81 782.816 351.421C785.014 354.727 787.215 358.031 789.418 361.333C791.413 364.321 794.192 367.454 795.212 370.957C795.947 373.483 795.411 376.18 794.971 378.393C794.866 378.921 794.766 379.421 794.691 379.885ZM623.983 371.422C631.544 376.422 637.903 384.003 643.008 391.981C621.696 389.764 600.421 387.208 579.193 384.298C581.972 382.522 584.777 380.785 587.646 379.145C588.559 378.63 589.501 378.088 590.466 377.531C600.569 371.711 613.315 364.368 623.983 371.422ZM262.96 423.524C264.482 426.937 265.993 432.891 269.898 434.42C272.95 435.615 277.089 435.098 280.767 434.639C282.104 434.473 283.38 434.314 284.521 434.247C309.179 432.803 334.259 435.301 358.25 441.154C379.688 446.384 400.104 454.807 419.291 465.665C438.121 476.319 455.845 488.779 474.42 499.854C512.509 522.566 553.793 539.318 596.864 549.846C619.102 555.282 641.892 559.338 664.576 562.405C680.749 564.591 697.311 565.99 713.621 564.68C727.654 563.553 742.78 559.969 753.501 550.289C767.661 537.504 770.402 517.536 771.678 499.484C773.067 477.833 772.853 455.801 767.935 434.573C765.582 424.417 761.998 414.964 757.4 405.624C754.767 400.274 749.956 393.6 748.888 387.113C730.006 386.115 711.815 389.696 694.398 396.263C696.568 396.395 698.737 396.527 700.906 396.67C706.23 397.023 711.543 397.476 716.835 398.157C721.037 398.697 726.366 398.731 730.044 401.072C735.949 404.827 735.796 413.346 731.077 417.965C726.059 422.875 716.507 421.762 709.19 420.91C707.816 420.75 706.52 420.599 705.349 420.499C667.205 417.245 629.132 413.538 591.179 408.473C552.441 403.303 513.974 396.715 475.505 389.858C436.991 382.993 398.181 376.591 359.007 375.313C339.667 374.682 320.221 375.362 301.058 378.17C283.236 380.784 266.506 386.225 249.302 391.129C253.833 401.936 258.188 412.821 262.96 423.524ZM242.096 423.552C244.617 431.733 246.546 441.074 251.927 447.948C257.257 454.76 265.298 457.164 273.628 457.77C279.525 458.198 285.463 458.214 291.398 458.229C295.571 458.24 299.744 458.251 303.9 458.406C324.545 459.173 344.907 462.526 364.643 468.677C383.035 474.41 400.108 483.352 416.554 493.272C431.762 502.446 446.524 512.295 461.737 521.441C457.688 523.297 453.685 525.305 449.66 527.053C441.218 530.719 432.724 534.256 424.192 537.705C407.367 544.505 390.471 551.14 373.402 557.304C338.984 569.733 304 580.592 268.595 589.842C251.709 594.254 234.583 599.407 217.04 600.141C201.484 600.791 187.075 596.394 174.529 587.145C148.507 567.961 127.804 540.271 111.068 512.958C101.125 496.731 92.4477 479.681 85.2707 462.052C81.6407 453.137 78.3487 444.085 75.3857 434.927C73.9957 430.627 72.6777 426.303 71.4297 421.959C70.8807 420.049 70.3547 418.133 69.8337 416.215C96.4427 408.095 123.368 400.765 150.925 396.696C165.638 394.523 180.547 393.423 195.421 393.583C202.804 393.662 210.183 394.061 217.527 394.823C221.48 395.233 225.417 395.761 229.337 396.415C230.957 396.684 232.622 397.082 234.292 397.375C236.843 406.116 239.415 414.85 242.096 423.552Z" transform="translate(41.99993 -1.999843)" fill="#000000" fill-rule="evenodd" stroke="none"></path></g><g transform="translate(225 0)"><g><g><path d="M355.263 99.3187C366.641 91.1467 349.675 64.2597 343.911 56.2597C338.897 45.8237 333.883 35.3867 328.868 24.9497C329.478 16.3907 321.12 8.77573 312.861 11.3797C305.676 6.22673 293.642 8.69373 289.99 16.7617C210.543 -17.8403 73.0773 -3.44527 65.9683 103.327C50.6003 133.727 35.3683 164.387 21.7333 195.608C2.81534 196.624 -6.35466 219.607 4.90834 234.46C6.40734 258.579 21.6983 260.488 42.1123 259.415C50.3103 261.574 58.8083 262.744 64.9563 269.075C69.6293 273.85 72.8053 279.905 75.8703 285.78C90.0153 312.886 107.986 336.334 132.346 355.085C170.229 383.436 221.511 403.791 268.749 389.99C370.306 350.108 390.25 190.722 355.263 99.3187L355.263 99.3187Z" transform="translate(50.00006 125.9998)" fill="#FFFFFF" stroke="none"></path><path d="M335.259 61.2131C289.209 10.2631 214.669 -10.4169 148.319 4.99306C80.7995 20.6731 30.2595 75.8031 13.7995 142.313C9.25949 160.663 7.04949 179.893 8.37949 198.783C9.03949 208.043 10.3695 217.193 12.7495 226.173C14.3795 232.323 16.5895 238.873 19.9295 244.523C17.5295 245.833 15.3095 247.363 13.3395 249.103C-5.35051 265.583 -3.42051 296.463 13.0295 313.733C24.9595 326.263 43.9695 328.883 60.4795 327.803C61.0095 327.773 61.5695 327.693 62.1195 327.573C62.5095 328.813 63.0095 330.023 63.5095 331.213C65.2295 335.303 67.2195 339.303 69.0695 343.333C72.3157 350.394 76.1209 357.195 80.016 363.917L82.0871 367.477C89.6505 380.504 97.6955 395.302 110.009 404.373C115.719 408.573 124.499 412.533 131.419 409.203C135.409 407.283 138.379 402.833 137.119 398.243C135.859 393.653 131.919 391.563 127.679 390.503C115.315 387.424 107.915 373.332 100.782 363.574L100.219 362.813C94.1295 354.663 87.6595 346.683 80.7795 339.183C78.4366 336.633 76.007 334.144 73.5636 331.677L69.9917 328.079C68.9237 327.01 67.8278 325.961 66.6695 325.003C66.9595 324.653 67.2095 324.263 67.3995 323.833C68.7695 320.823 68.8695 318.763 67.3995 315.743C66.1495 313.183 63.1595 311.883 60.4795 311.773C58.9413 311.711 57.3833 311.67 55.816 311.629C43.4442 311.301 30.4937 310.958 22.1595 300.343C15.8095 292.273 13.7295 280.963 16.5595 271.153C19.6395 260.493 29.1395 253.833 39.6395 251.643C51.3095 249.203 62.3495 251.763 72.4895 257.793C73.0195 258.113 73.4695 257.503 73.2595 257.023C72.2295 254.623 70.9295 252.483 69.4095 250.593L70.1895 249.953L70.2771 250.066C70.4937 250.32 70.7945 250.512 71.1795 250.573C78.5095 251.713 85.3395 253.513 91.3495 257.773C92.0195 258.233 92.6895 258.743 93.3395 259.283C96.6495 262.033 102.699 260.513 102.479 255.503C101.829 240.303 98.9195 225.113 97.6395 209.953C96.3095 194.273 95.9195 178.603 96.3395 162.883L96.3479 162.516C96.358 162.038 96.3651 161.553 96.3723 161.063C96.448 155.888 96.5321 150.14 100.249 146.253C101.71 144.719 108.138 144.509 115.979 144.252C126.34 143.913 139.167 143.493 146.259 139.833C152.569 136.583 151.069 128.523 146.259 124.943C138.819 119.413 132.519 102.003 141.919 92.8031C150.619 84.2773 165.304 80.5371 177.154 78.7549L178.329 78.5831C199.442 75.5753 220.921 78.2398 242.169 80.8757C249.886 81.8329 257.572 82.7864 265.199 83.4631C273.289 84.1931 281.419 84.6731 289.549 84.6831L290.638 84.6832C298.45 84.6816 306.484 84.5742 313.24 80.5131C317.029 80.1631 320.589 79.0531 324.149 77.7231C340.299 101.793 351.71 129.543 358.339 157.723C365.239 187.033 366.339 217.423 365.629 247.423C364.169 308.823 357.369 384.803 301.399 422.593C286.759 432.473 270.629 437.913 252.919 438.413C242.909 438.703 233.02 437.583 223.249 435.443C213.259 433.263 203.669 429.063 193.6 427.573C185.239 426.343 180.129 436.453 187.709 441.543C195.098 446.496 204.073 449.009 212.727 451.176L215.009 451.743C224.509 454.093 234.239 455.633 243.999 456.313C262.509 457.613 280.829 454.503 297.869 447.213C327.459 434.543 351.059 407.933 364.339 378.993C380.899 342.883 384.729 302.963 385.839 263.693L385.887 261.948C386.748 229.369 385.815 196.511 379.379 164.473C375.77 146.513 370.219 129.253 361.519 113.083C353.479 98.1331 341.749 85.7131 327.679 76.3631C328.609 76.0031 329.539 75.6331 330.489 75.2831C331.27 76.3451 332.078 77.3819 332.896 78.4151L334.539 80.4831C335.649 81.8931 338.079 81.6531 339.249 80.4831C340.429 79.2931 340.629 76.9431 339.249 75.7731C337.929 74.6631 336.629 73.5531 335.299 72.4731C338.149 69.4531 338.499 64.7931 335.259 61.2131ZM64.7389 275.687C51.0892 272.071 26.0704 265.443 28.7496 280.983C28.8396 281.513 29.7496 281.523 29.8296 280.983C31.1416 272.485 41.8144 278.218 47.3526 281.193C48.1885 281.642 48.9075 282.028 49.4596 282.293L50.5901 282.824C55.8857 285.275 61.4403 287.349 66.4896 290.243L66.7737 290.4C76.1079 295.355 81.3938 278.719 71.9096 277.403L71.6682 277.367C70.1805 277.129 67.7333 276.481 64.7389 275.687Z" transform="translate(45.00021 64.99994)" fill="#000000" fill-rule="evenodd" stroke="none"></path></g></g><g transform="translate(159 186)"><g><path d="M140.63 0.473197L139.193 0.179116C137.503 -0.15929 135.804 -0.0161244 134.311 0.591153C132.847 1.18684 131.572 2.2242 130.68 3.72083C129.495 5.71373 129.337 7.38618 129.887 9.59525C130.311 11.3022 131.242 12.5864 132.46 13.5139C133.744 14.4911 135.37 15.0612 137.06 15.2595C144.854 16.175 152.53 17.8896 159.992 20.3235C163.488 21.4643 166.788 23.0096 170.058 24.6132L172.877 26.002C175.477 27.2735 178.163 28.499 181.557 29.3885C181.824 29.4584 182.087 29.5243 182.349 29.5865C183.29 29.2909 183.45 28.9329 183.649 28.6733L183.73 28.5721C183.972 28.2679 184.271 27.8025 183.988 25.6306C176.583 10.2711 156.267 3.74181 140.63 0.473197ZM43.5878 4.83023L45.4652 4.50163C51.273 3.49719 58.4944 2.53203 62.6028 7.20123C64.7819 9.67723 65.5318 14.2792 62.6028 16.6492C58.7671 19.7539 54.6298 19.6513 50.2182 19.5419C48.7043 19.5044 47.1582 19.466 45.5808 19.5562C40.4928 19.8482 35.6028 20.6902 30.7018 22.0912C19.9498 25.1642 11.1888 30.7742 2.00585 36.9342C0.800849 37.7422 -0.429151 36.2012 0.145849 35.0742C5.44685 24.6912 15.7198 16.1622 26.0098 10.9632C31.5019 8.18823 37.5118 5.88623 43.5878 4.83023ZM29.9632 50.1461C30.7976 39.7899 46.5702 37.4381 48.1392 47.6861C49.5442 56.8661 47.8902 65.2991 43.7552 73.5641C39.8042 81.4601 29.8737 77.7763 29.1227 70.5863C28.3809 63.4843 28.9069 59.2482 29.4428 54.933C29.6341 53.3921 29.8267 51.8412 29.9632 50.1461ZM159.205 41.8262C155.401 40.7152 152.226 42.6812 150.027 45.5612C149.773 45.8932 149.566 46.2222 149.38 46.5482C142.515 52.8562 145.101 65.6452 150.501 72.0492C153.814 75.9762 161.145 74.8452 163.413 70.3852C167.587 62.1722 171.09 45.2992 159.205 41.8262ZM128.748 119.039C136.872 107.66 125.366 96.9569 117.814 92.3669C115.836 90.9469 117.406 86.2431 121.634 86.9701C160.031 93.5671 140.136 159.708 91.112 123.413C85.2754 118.704 92.3434 108.334 98.6342 112.366C98.9532 112.611 99.2876 112.869 99.6364 113.139C106.704 118.603 119.636 128.601 128.748 119.039ZM93.5865 188.926C86.8642 186.184 80.8663 181.61 76.4812 175.766C74.9566 173.735 74.5614 171.589 74.8812 169.627C75.2408 167.421 76.546 165.422 78.326 164.08C80.1115 162.735 82.345 162.072 84.5043 162.41C86.3806 162.704 88.2484 163.731 89.7265 165.862L90.0354 166.288C92.6424 169.815 96.0396 172.708 99.9104 174.574C103.641 176.372 107.814 177.211 112.132 176.723C120.356 175.794 126.024 171.346 132.049 165.306C132.796 164.544 133.543 163.757 134.294 162.958C134.768 162.234 135.426 161.768 136.157 161.524C136.968 161.253 137.886 161.268 138.726 161.562C139.537 161.845 140.262 162.381 140.747 163.094C141.209 163.772 141.471 164.61 141.386 165.574C140.835 171.833 137.562 177.419 132.914 181.805C127.752 186.677 120.909 190.047 114.466 191.229C107.368 192.531 100.136 191.598 93.5865 188.926Z" transform="translate(53.00005 52.00027)" fill="#000000" fill-rule="evenodd" stroke="none"></path></g></g><g transform="translate(123 338)"></g><g transform="translate(47 241)"><g><path d="M375.513 33.9959C378.273 31.6829 383.089 31.1349 386.423 31.1279C394.028 32.5829 390.88 44.1729 376.385 36.9629C398.166 128.052 258.709 131.937 282.237 45.3469C268.157 41.9599 253.29 41.6839 240.365 48.1139C251.522 87.8139 214.401 125.982 171.734 116.181C144.179 109.783 125.789 88.4229 134.308 57.0269C128.899 58.7229 118.76 57.3109 115.622 53.0899C104.775 52.1634 93.9913 50.8415 83.2204 49.5212C59.091 46.5633 35.0273 43.6135 10.4674 45.1359C7.12749 45.5983 7.31436 47.952 7.50111 50.304C7.68714 52.6469 7.87304 54.9883 4.57241 55.4569C-3.01759 54.7649 -0.0355915 41.9389 5.39841 39.8539C13.0234 34.3889 78.5984 39.8119 116.105 49.6479C121.083 46.3825 128.583 47.3802 134.493 48.1664C135.445 48.2929 136.355 48.414 137.206 48.5109C144.594 30.0029 168.272 6.93191 192.028 10.8229C213.793 12.0919 232.079 20.6889 239.509 45.2399C250.854 34.9489 271.426 31.6259 284.509 39.4079C291.765 23.0939 304.532 10.8229 321.737 5.28991C343.585 -10.2001 368.707 11.0429 375.513 33.9959ZM358.311 87.4579C346.17 100.003 325.902 103.603 309.749 96.8749C268.273 79.5459 288.574 25.4959 320.561 10.9809C324.557 9.98491 329.894 7.62191 334.761 7.08591C334.928 7.0043 335.168 7.04274 335.465 7.09029C335.954 7.1686 336.598 7.27161 337.32 6.90391C372.591 10.8419 380.623 65.5939 358.311 87.4579ZM164.916 105.906C185.6 114.302 210.916 108.73 224.533 90.6689C249.948 57.3679 225.561 0.903908 166.504 23.0949C138.547 41.8849 124.054 89.8139 164.916 105.906ZM135.953 50.6509C135.915 50.6329 135.877 50.6239 135.838 50.6059C136.054 50.5109 136.27 50.4159 136.485 50.3189C136.415 50.5019 136.339 50.6829 136.271 50.8659C136.165 50.7929 136.072 50.7079 135.953 50.6509Z" transform="translate(13.99969 7.999794)" fill="#000000" fill-rule="evenodd" stroke="none"></path></g></g></g></g></svg>